<svg xmlns="http://www.w3.org/2000/svg" viewBox="0 0 220 48" fill="none">
  <rect x="2" y="6" width="36" height="36" rx="8" fill="#0a0a23"/>
  <path d="M12 14h8.5c2.8 0 4.9 .6 6.3 1.8c1.5 1.2 2.2 2.9 2.2 5.1c0 1.4 -.4 2.6 -1.1 3.6c-.7 1 -1.8 1.7 -3.2 2.1v.1c1.8 .3 3.1 1 4 2.1c.9 1.1 1.3 2.5 1.3 4.3c0 2.5 -.9 4.4 -2.6 5.7c-1.7 1.3 -4.2 2 -7.3 2H12V14zm5 10.5h4c1.6 0 2.8 -.3 3.6 -.9c.8 -.6 1.2 -1.5 1.2 -2.7c0 -1.2 -.4 -2 -1.1 -2.6c-.7 -.5 -1.9 -.8 -3.5 -.8H17v7zm0 11h4.5c1.7 0 3 -.3 3.8 -1c.9 -.6 1.3 -1.6 1.3 -3c0 -1.3 -.4 -2.2 -1.3 -2.9c-.9 -.6 -2.2 -.9 -4 -.9H17v7.8z" fill="#e0e0e0"/>
  <rect x="30" y="14" width="3" height="20" fill="#4a9eff"/>
  <text x="48" y="22" font-family="system-ui,sans-serif" font-size="13" font-weight="600" fill="#0a0a23">Back Office</text>
  <text x="48" y="38" font-family="system-ui,sans-serif" font-size="11" font-weight="400" fill="#666">Treasury &amp; Finance Console</text>
</svg>